<svg width="48" height="48" viewBox="0 0 48 48" fill="none" xmlns="http://www.w3.org/2000/svg">
<circle cx="24" cy="24" r="24" fill="#0049C6"/>
<path d="M36.9035 26.7907V29.1196L33.2615 32.5232L24.0298 23.3738V16.7198L30.4672 13.9636V20.4116L36.9035 26.7907Z" fill="#A0D7E7"/>
<path d="M33.2617 32.5232L28.4513 36.9863L17.5803 26.2122V13.9636L24.03 16.7198V23.3738L33.2617 32.5232Z" fill="#A0D7E7"/>
<path d="M28.4471 36.9863L25.0774 40.1322C24.486 40.6838 23.5636 40.6838 22.9722 40.1322L11.1428 29.1196V13.5222C11.1435 13.0101 11.404 12.5326 11.836 12.2516C12.268 11.9706 12.8136 11.9237 13.2879 12.1269L17.5802 13.9636V26.2122L28.4471 36.9863Z" fill="#3F8CFF"/>
<path d="M36.9037 13.5222V26.7907L30.4673 20.4116V13.9636L34.7585 12.1269C35.2329 11.9237 35.7785 11.9706 36.2105 12.2516C36.6425 12.5326 36.903 13.0101 36.9037 13.5222Z" fill="#3F8CFF"/>
</svg>
