<svg width="141" height="32" viewBox="0 0 141 32" fill="none" xmlns="http://www.w3.org/2000/svg">
<path fill-rule="evenodd" clip-rule="evenodd" d="M9.0945 2.52544C9.0945 2.01984 8.67919 1.6 8.15236 1.6H8.15108C7.63579 1.6 7.20766 2.01984 7.20766 2.52544C7.20766 3.90656 8.36515 5.04064 9.78668 5.04064H11.0313C11.8863 5.04064 12.6041 5.73056 12.6041 6.58176V6.7904C10.8929 6.7904 9.20858 6.816 7.56016 6.8416C3.18275 6.8416 0 9.94816 0 14.24V19.7517C0 24.0435 3.18275 27.1501 7.54735 27.1501C9.29575 27.1872 11.0698 27.2 12.831 27.2C14.5922 27.2 16.3406 27.1885 18.089 27.1501C22.4536 27.1501 25.6364 24.0435 25.6364 19.7517V14.2387C25.6364 9.94816 22.4536 6.84032 18.089 6.84032C17.669 6.83631 17.2504 6.83076 16.8328 6.82521C16.0499 6.81482 15.2705 6.80448 14.4922 6.80448V6.57024C14.4794 4.71936 12.931 3.20384 11.0313 3.19104H9.78668C9.40983 3.19104 9.0945 2.89536 9.0945 2.52544ZM8.41747 14.1115C8.59451 13.9379 8.83353 13.8418 9.08168 13.8445H9.08297C9.59834 13.843 10.0193 14.2554 10.0277 14.7699V16.0653H11.3479C11.8623 16.0645 12.2823 16.4759 12.2914 16.9895C12.2897 17.2375 12.189 17.4746 12.0117 17.6483C11.8344 17.822 11.595 17.918 11.3467 17.9149H10.0264V19.2218C10.0173 19.7354 9.59735 20.1467 9.08297 20.1459C8.55486 20.1459 8.13955 19.7274 8.13955 19.2205V17.9149H6.80646C6.29117 17.9149 5.86304 17.5079 5.86304 16.9895C5.87214 16.4759 6.29207 16.0645 6.80646 16.0653H8.13827V14.7699C8.13996 14.5221 8.24043 14.2852 8.41747 14.1115ZM18.9696 18.2221H18.8427C18.3312 18.2221 17.9166 18.6361 17.9166 19.1469C17.9166 19.6576 18.3312 20.0717 18.8427 20.0717H18.9683C19.2163 20.0744 19.4551 19.9785 19.6321 19.8051C19.8091 19.6317 19.9097 19.3951 19.9118 19.1475C19.9027 18.6339 19.4827 18.2226 18.9683 18.2234L18.9696 18.2221ZM16.6918 13.9814H16.8175C17.3323 13.9807 17.7525 14.3928 17.7609 14.9069C17.7588 15.1545 17.6582 15.3911 17.4812 15.5645C17.3042 15.7378 17.0654 15.8338 16.8175 15.831H16.6918C16.1804 15.831 15.7657 15.417 15.7657 14.9062C15.7657 14.3955 16.1804 13.9814 16.6918 13.9814Z" fill="url(#paint0_linear_0_35)"/>
<path fill-rule="evenodd" clip-rule="evenodd" d="M71.78 9.03637C72.3566 9.03637 72.8497 8.84394 73.2593 8.4591C73.669 8.07425 73.8739 7.61213 73.8739 7.07273C73.8739 6.5394 73.669 6.08031 73.2593 5.69546C72.8497 5.31061 72.3535 5.11819 71.7709 5.11819C71.2004 5.11819 70.7088 5.31061 70.2961 5.69546C69.8833 6.08031 69.677 6.5394 69.677 7.07273C69.677 7.61213 69.8833 8.07425 70.2961 8.4591C70.7088 8.84394 71.2034 9.03637 71.78 9.03637ZM47.0303 24.2136C45.8711 24.7803 44.5207 25.0636 42.9791 25.0636C41.4315 25.0636 40.0781 24.7803 38.9188 24.2136C37.7596 23.647 36.8583 22.8545 36.215 21.8364C35.5717 20.8182 35.25 19.6303 35.25 18.2727V6.18181H39.192V17.9364C39.192 18.6455 39.3482 19.2758 39.6608 19.8273C39.9734 20.3788 40.4149 20.8121 40.9854 21.1273C41.5559 21.4424 42.2205 21.6 42.9791 21.6C43.7439 21.6 44.41 21.4424 44.9774 21.1273C45.5449 20.8121 45.9849 20.3788 46.2975 19.8273C46.6101 19.2758 46.7663 18.6455 46.7663 17.9364V6.18181H50.7083V18.2727C50.7083 19.6303 50.3851 20.8182 49.7387 21.8364C49.0924 22.8545 48.1896 23.647 47.0303 24.2136ZM57.7583 16.7273V24.8H53.8801V10.8364H57.5762V13.3H57.7401C58.0496 12.4879 58.5685 11.844 59.2969 11.3682C60.0252 10.8924 60.9082 10.6546 61.9461 10.6546C62.9171 10.6546 63.7638 10.8667 64.486 11.2909C65.2083 11.7152 65.7697 12.3197 66.1702 13.1046C66.5708 13.8894 66.7711 14.8243 66.7711 15.9091V24.8H62.8929V16.6C62.8989 15.7455 62.6804 15.0773 62.2374 14.5955C61.7943 14.1137 61.1844 13.8727 60.4075 13.8727C59.8856 13.8727 59.4258 13.9849 59.0283 14.2091C58.6308 14.4333 58.3212 14.7591 58.0997 15.1864C57.8782 15.6137 57.7644 16.1273 57.7583 16.7273ZM73.7009 10.8364V24.8H69.8226V10.8364H73.7009ZM82.3895 24.9909C82.8933 24.9727 83.3212 24.9228 83.6732 24.8409C84.0252 24.7591 84.2983 24.6879 84.4925 24.6273L83.8826 21.7455C83.7855 21.7637 83.6459 21.7894 83.4638 21.8228C83.2817 21.8561 83.0996 21.8727 82.9176 21.8727C82.6566 21.8727 82.4275 21.8334 82.2302 21.7546C82.033 21.6758 81.8797 21.5379 81.7705 21.3409C81.6612 21.144 81.6066 20.8667 81.6066 20.5091L81.6064 13.7456L84.2376 13.7455V10.8364L81.6064 10.8368L81.6066 7.49093H77.7284L77.7281 10.8368L75.8166 10.8364V13.7455L77.7281 13.7456L77.7284 21.0182C77.7229 21.8502 77.8804 22.5519 78.2009 23.1234L78.3019 23.2909C78.6903 23.8909 79.2351 24.3334 79.9361 24.6182C80.637 24.9031 81.4549 25.0273 82.3895 24.9909ZM91.608 29.5773C90.9283 29.8833 90.1089 30.0364 89.15 30.0364C88.6584 30.0364 88.1987 29.9985 87.7708 29.9227C87.3429 29.847 86.9894 29.7515 86.7102 29.6364L87.5841 26.7455C88.0393 26.8849 88.4505 26.9606 88.8177 26.9727C89.1849 26.9849 89.5035 26.9 89.7736 26.7182C90.0437 26.5364 90.2637 26.2273 90.4336 25.7909L90.6612 25.2L85.645 10.8364H89.7235L92.6186 21.0909H92.7642L95.6866 10.8364L99.7924 10.8546L94.3574 26.3091C94.0964 27.0606 93.7429 27.7167 93.2968 28.2773C92.8507 28.8379 92.2878 29.2712 91.608 29.5773Z" fill="#11142D"/>
<path d="M105.415 24.8V20.7875H101.397V24.8H105.415Z" fill="#6C5DD3"/>
<defs>
<linearGradient id="paint0_linear_0_35" x1="14.4604" y1="-7.81875" x2="-4.37263" y2="14.5279" gradientUnits="userSpaceOnUse">
<stop stop-color="#5C8FFF"/>
<stop offset="1" stop-color="#C14BFF"/>
</linearGradient>
</defs>
</svg>
